<?xml version="1.0" encoding="utf-8"?>
<!-- Generator: Adobe Illustrator 27.5.0, SVG Export Plug-In . SVG Version: 6.00 Build 0)  -->
<svg version="1.1" xmlns="http://www.w3.org/2000/svg" xmlns:xlink="http://www.w3.org/1999/xlink" x="0px" y="0px"
	 viewBox="0 0 3710 3710" style="enable-background:new 0 0 3710 3710;" xml:space="preserve">
<g id="Background">
	<g>
		<g>
			<rect style="fill:#FFFFFF;" width="3710" height="3710"/>
		</g>
	</g>
</g>
<g id="Illustration">
	<g>
		<path style="fill:#F4F7FA;" d="M1162.651,613.238c-93.22,130.503,12.218,344.78-125.091,442.222
			c-133.661,94.853-294.956-64.625-420.839,16.909c-186.742,120.952-158.793,683.689,108.668,1035.96
			c80.434,105.939,148.136,147.542,177.06,266.703c62.11,255.867-167.208,405.272-125.2,531.938
			c94.585,285.207,1592.704,539.455,2203.809-308.265c285.411-395.92,333.546-971.463,86.893-1411.57
			C2622.25,391.867,1371.82,320.413,1162.651,613.238z"/>
		<g>
			<linearGradient id="SVGID_1_" gradientUnits="userSpaceOnUse" x1="1606.9742" y1="2184.5703" x2="1342.9625" y2="1295.6178">
				<stop  offset="0" style="stop-color:#FF9085"/>
				<stop  offset="1" style="stop-color:#FB6FBB"/>
			</linearGradient>
			<path style="fill:url(#SVGID_1_);" d="M2477.175,2884.156c-100.129,3.929-857.269,21.075-1360.166-574.812
				C735.228,1856.969,707.233,1296.868,767.9,980.766c17.95-93.528,73.514-383.043,198.722-399.2
				c41.324-5.332,92.101,18.869,115.7,57.314c67.767,110.4-114.281,296.4-52.203,363.769c17.881,19.404,52.459,25.109,74.262,14.318
				c59.094-29.251-4.452-165.461,62.757-281.672c50.116-86.656,162.97-144.958,207.2-116.968
				c60.822,38.49-20.304,232.436-60.155,421.083c0,0-101.403,480.033,103.6,979.186
				C1660.294,2609.075,2321.679,2835.192,2477.175,2884.156z"/>
			
				<linearGradient id="SVGID_00000054961437873242555670000004548554929311166130_" gradientUnits="userSpaceOnUse" x1="1606.9741" y1="2184.5698" x2="1342.9623" y2="1295.6172">
				<stop  offset="0" style="stop-color:#FF9085"/>
				<stop  offset="1" style="stop-color:#FB6FBB"/>
			</linearGradient>
			<path style="opacity:0.3;fill:url(#SVGID_00000054961437873242555670000004548554929311166130_);" d="M1700.116,2651.603
				c-99.68-107.461-139.377-264.212-380.98-521.341c-253.758-270.064-340.874-236.463-385.162-369.741
				c-111.785-336.39,414.819-635.792,331.692-1047.237c-4.474-22.144-10.512-43.408-17.787-63.852
				c-31.304,21.815-60.928,51.606-80.74,85.863c-67.209,116.212-3.663,252.422-62.757,281.672
				c-21.803,10.793-56.38,5.086-74.262-14.318c-62.079-67.367,119.97-253.368,52.203-363.768
				c-23.599-38.445-74.376-62.646-115.7-57.315C841.414,597.722,785.85,887.238,767.9,980.767
				c-60.667,316.101-32.672,876.202,349.109,1328.577c502.897,595.887,1260.036,578.741,1360.166,574.812
				c-36.771-11.578-101.857-33.083-182.979-66.951C1967.369,2835.205,1795.558,2754.494,1700.116,2651.603z"/>
		</g>
		<g>
			
				<linearGradient id="SVGID_00000160169624096269155050000016174100302494299305_" gradientUnits="userSpaceOnUse" x1="2000.6692" y1="2194.8369" x2="2311.4688" y2="3153.9707">
				<stop  offset="0" style="stop-color:#FFC444"/>
				<stop  offset="0.9964" style="stop-color:#F36F56"/>
			</linearGradient>
			<path style="fill:url(#SVGID_00000160169624096269155050000016174100302494299305_);" d="M2560.723,2834.027
				c24.487-42.805-250.878-154.845-441.135-457.844c-72.424-115.341-227.816-410.126-227.548-778.553
				c0.111-153.77,27.355-343.732-33.123-364.387c-24.175-8.257-65.533,9.646-83.548,36.761
				c-15.871,23.888-5.759,43.091-19.466,99.205c-1.485,6.081-16.002,65.508-27.321,64.549c-14.409-1.22,3.084-98.012-46.787-197.174
				c-11.55-22.966-45.048-89.731-73.522-86.89c-63.092,6.292-129.188,337.22-80.206,641.651
				c67.677,420.621,352.169,772.803,681.754,945.766C2362.835,2817.411,2541.584,2867.486,2560.723,2834.027z"/>
			
				<linearGradient id="SVGID_00000103958891790124604280000004219001155934598550_" gradientUnits="userSpaceOnUse" x1="1998.2915" y1="2195.6082" x2="2309.0913" y2="3154.7424">
				<stop  offset="0" style="stop-color:#FFC444"/>
				<stop  offset="0.9964" style="stop-color:#F36F56"/>
			</linearGradient>
			<path style="opacity:0.3;fill:url(#SVGID_00000103958891790124604280000004219001155934598550_);" d="M2007.573,2404.3
				c-226.858-241.782-394.841-425.68-367.612-634.967c15.473-118.927,80.143-139.706,133.677-267.354
				c28.679-68.381,48.91-154.973,44.6-264.981c-16.834,6.629-33.21,18.467-42.869,33.006c-15.871,23.888-5.759,43.091-19.466,99.205
				c-1.485,6.082-16.002,65.509-27.321,64.549c-14.409-1.219,3.084-98.011-46.787-197.174c-11.55-22.966-45.048-89.729-73.522-86.89
				c-63.092,6.292-129.188,337.22-80.206,641.651c67.677,420.621,352.169,772.804,681.754,945.766
				c151.224,79.36,327.561,129.187,350.144,98.045c-46.723-14.257-92.887-32.868-137.992-56.56
				C2297.339,2713.13,2200.751,2610.186,2007.573,2404.3z"/>
		</g>
		<g>
			
				<linearGradient id="SVGID_00000117678545200307276430000018125204035969522325_" gradientUnits="userSpaceOnUse" x1="1833.476" y1="197.2314" x2="2685.7532" y2="1771.4355">
				<stop  offset="0" style="stop-color:#444B8C"/>
				<stop  offset="0.9964" style="stop-color:#26264F"/>
			</linearGradient>
			<path style="fill:url(#SVGID_00000117678545200307276430000018125204035969522325_);" d="M2577.274,1256.557
				c-45.185,10.732-107.717,25.584-121.212,3.133c-14.193-23.615,34.268-74.511,23.917-83.848
				c-8.211-7.408-36.26,26.851-72.596,20.981c-19.673-3.178-42.636-18.259-45.665-37.181c-4.557-28.477,39.501-43.979,35.09-75.193
				c-2.035-14.401-14.138-30.396-28.486-33.054c-30.609-5.67-43.915,54.452-93.024,64.57c-30.854,6.357-67.444-8.756-86.665-32.56
				c-31.962-39.585-4.972-89.685-30.136-105.618c-20.331-12.873-45.519,15.036-89.181,25.187
				c-67.86,15.776-149.057-18.621-193.848-70.582c-60.504-70.188-63.163-182.376-20.052-250.645
				c96.394-152.638,449.183-129.404,538.051,8.355c28.237,43.771,68.515,159.075,86.89,260.671
				c5.193,28.706,10.351,65.803,40.103,90.232c38.233,31.392,75.207,7.484,125.322,36.761
				c41.224,24.083,78.712,76.773,66.839,115.297C2702.197,1226.886,2657.505,1237.501,2577.274,1256.557z"/>
			
				<linearGradient id="SVGID_00000029738787304313820580000017314918267776941991_" gradientUnits="userSpaceOnUse" x1="2041.2908" y1="1456.6879" x2="2388.8521" y2="1971.3464">
				<stop  offset="0" style="stop-color:#FFC444"/>
				<stop  offset="0.9964" style="stop-color:#F36F56"/>
			</linearGradient>
			<path style="fill:url(#SVGID_00000029738787304313820580000017314918267776941991_);" d="M2086.414,1430.184
				c1.427,8.588-124.397,151.659-145.033,220.484l240.75,73.031c0,0,149.034-109.479,196.458-109.477L2086.414,1430.184z"/>
			
				<linearGradient id="SVGID_00000085220982850796527030000010640596710078210968_" gradientUnits="userSpaceOnUse" x1="2220.2937" y1="1247.2267" x2="2224.7495" y2="1570.2804">
				<stop  offset="0" style="stop-color:#311944"/>
				<stop  offset="1" style="stop-color:#A03976"/>
			</linearGradient>
			<path style="fill:url(#SVGID_00000085220982850796527030000010640596710078210968_);" d="M2087.625,1409.615
				c-4.195,0.113-49.914,72.602-53.256,90.983c0,0,198.72,100.49,238.05,162.199l142.224-58.134
				C2414.643,1604.662,2177.642,1407.193,2087.625,1409.615z"/>
			
				<linearGradient id="SVGID_00000169520779787097744190000005564615539075325606_" gradientUnits="userSpaceOnUse" x1="1922.1368" y1="1654.4196" x2="2216.1917" y2="1654.4196">
				<stop  offset="0" style="stop-color:#311944"/>
				<stop  offset="1" style="stop-color:#A03976"/>
			</linearGradient>
			<path style="fill:url(#SVGID_00000169520779787097744190000005564615539075325606_);" d="M1922.137,1680.168
				c0,0,35.938-88.708,58.211-103.226c22.273-14.519,153.654,32.233,235.844,124.989l-39.344,32.573L1922.137,1680.168z"/>
			
				<linearGradient id="SVGID_00000007419529948291122020000013635541162741876147_" gradientUnits="userSpaceOnUse" x1="1552.8893" y1="1055.7318" x2="1532.8373" y2="1844.4235">
				<stop  offset="0" style="stop-color:#FFC444"/>
				<stop  offset="0.9964" style="stop-color:#F36F56"/>
			</linearGradient>
			<path style="fill:url(#SVGID_00000007419529948291122020000013635541162741876147_);" d="M1613.558,967.559
				c0,0-58.94-17.22-93.938-8.61c-34.998,8.61-22.264,52.32-16.098,65.555c6.165,13.235,91.82-15.772,91.82-15.772L1613.558,967.559
				z"/>
			
				<linearGradient id="SVGID_00000180361562176533596930000015504815929471552163_" gradientUnits="userSpaceOnUse" x1="2961.0896" y1="1090.9852" x2="2941.0066" y2="1880.891">
				<stop  offset="0" style="stop-color:#FFC444"/>
				<stop  offset="0.9964" style="stop-color:#F36F56"/>
			</linearGradient>
			<path style="fill:url(#SVGID_00000180361562176533596930000015504815929471552163_);" d="M2928.567,1427.203
				c-2.831-27.288-1.527-49.339,0.308-64.75c2.706-22.713,6.733-32.413,14.102-35.262c5.71-2.207,11.607,0.403,13.405,1.199
				c19.892,8.805,25.174,43.368,23.369,65.353c-2.152,26.215-15.259,45.273-23.369,55.055
				C2947.111,1441.599,2937.839,1434.401,2928.567,1427.203z"/>
			
				<linearGradient id="SVGID_00000037693560235681292840000016331689885089163682_" gradientUnits="userSpaceOnUse" x1="1574.9862" y1="1365.0674" x2="2968.5027" y2="1365.0674">
				<stop  offset="0.0036" style="stop-color:#E38DDD"/>
				<stop  offset="1" style="stop-color:#9571F6"/>
			</linearGradient>
			<path style="fill:url(#SVGID_00000037693560235681292840000016331689885089163682_);" d="M1606.602,945.837
				c-10.538,27.074-21.078,54.149-31.616,81.223c37.401,27.516,94.015,60.358,166.964,69.164
				c76.682,9.257,99.101-16.773,159.22,3.49c65.443,22.059,60.775,60.285,149.909,110.135
				c70.429,39.388,108.673,35.281,112.136,58.791c4.522,30.694-58.446,52.803-143.884,151.751
				c-32.207,37.3-36.958,50.024-33.419,60.155c11.24,32.165,92.445-0.854,177.122,35.09
				c113.516,48.185,138.479,180.067,193.832,168.768c11.281-2.303,14.006-8.547,51.8-51.8
				c34.802-39.828,64.654-71.343,85.271-92.546c28.889,13.369,65.022,33.641,101.381,64.749
				c79.164,67.734,87.117,125.001,162.58,159.803c24.271,11.193,62.578,28.86,97.484,13.992
				c21.335-9.088,42.139-30.646,78.086-165.399c16.94-63.503,27.954-117.329,35.035-156.185
				c-17.846-13.323-35.689-26.646-53.535-39.969c-21.599,23.545-50.599,61.2-68.51,113.626
				c-19.144,56.037-12.38,90.202-31.748,98.587c-24.013,10.396-56.521-32.552-133.481-105.992
				c-105.072-100.265-125.211-97.249-192.357-173.059c-61.997-69.997-59.84-89.52-100.258-137.019
				c-23.611-27.747-96.325-105.676-439.741-196.116C1864.948,994.974,1748.493,967.815,1606.602,945.837z"/>
			
				<linearGradient id="SVGID_00000035513338606629372900000000544795778022938029_" gradientUnits="userSpaceOnUse" x1="1574.9862" y1="1332.2323" x2="2359.7671" y2="1332.2323">
				<stop  offset="0.0036" style="stop-color:#E38DDD"/>
				<stop  offset="1" style="stop-color:#9571F6"/>
			</linearGradient>
			<path style="opacity:0.3;fill:url(#SVGID_00000035513338606629372900000000544795778022938029_);" d="M2155.728,1428.764
				c-9.366-65.358,164.063-118.427,152.68-173.798c-6.028-29.324-57.8-29.678-143.703-61.826
				c-156.888-58.713-141.606-116.439-255.658-147.045c-123.214-33.064-183.001,23.049-272.367-31.748
				c-16.853-10.334-31.079-22.387-43.133-34.969c-6.186,15.895-12.374,31.788-18.56,47.682
				c37.401,27.516,94.015,60.358,166.964,69.164c76.682,9.257,99.101-16.773,159.22,3.49
				c65.443,22.059,60.775,60.285,149.909,110.135c70.429,39.388,108.673,35.281,112.136,58.791
				c4.522,30.694-58.446,52.803-143.884,151.751c-32.207,37.3-36.958,50.024-33.419,60.155c11.24,32.165,92.445-0.854,177.122,35.09
				c113.516,48.185,138.479,180.067,193.832,168.768c1.028-0.21,1.983-0.454,2.902-0.754c-1.281-44.422-11.449-93.49-43.005-134.594
				C2257.104,1471.342,2162.523,1476.177,2155.728,1428.764z"/>
			
				<linearGradient id="SVGID_00000181800325733497108290000016747788957079369345_" gradientUnits="userSpaceOnUse" x1="2481.0342" y1="1650.5222" x2="2904.0137" y2="1650.5222">
				<stop  offset="0.0036" style="stop-color:#E38DDD"/>
				<stop  offset="1" style="stop-color:#9571F6"/>
			</linearGradient>
			<path style="opacity:0.3;fill:url(#SVGID_00000181800325733497108290000016747788957079369345_);" d="M2833.091,1751.242
				c-45.739-1.756-58.332-61.279-160.413-147.045c-40.699-34.194-128.158-108.343-170.745-81.842
				c-3.926,2.444-14.289,9.89-20.898,31.079c4.62-4.828,8.936-9.298,12.903-13.377c28.889,13.369,65.022,33.641,101.381,64.749
				c79.164,67.734,87.117,125.001,162.58,159.803c24.271,11.193,62.578,28.86,97.484,13.992c14.74-6.278,29.23-18.533,48.632-69.932
				C2875.002,1743.471,2851.281,1751.941,2833.091,1751.242z"/>
			
				<linearGradient id="SVGID_00000168824963361803074690000006923277851384566696_" gradientUnits="userSpaceOnUse" x1="2413.4153" y1="1322.1543" x2="2576.2637" y2="1322.1543">
				<stop  offset="0" style="stop-color:#FFC444"/>
				<stop  offset="0.9964" style="stop-color:#F36F56"/>
			</linearGradient>
			<path style="fill:url(#SVGID_00000168824963361803074690000006923277851384566696_);" d="M2560.472,1234.694
				c0,0-87.025,65.803-145.83,13.161c0,0-20.438,96.594,105.486,161.759c0,0-47.074-43.649,56.135-108.95L2560.472,1234.694z"/>
			
				<linearGradient id="SVGID_00000021821001401418163750000002640757928454298015_" gradientUnits="userSpaceOnUse" x1="2683.0117" y1="1408.96" x2="2418.9988" y2="757.2834">
				<stop  offset="0" style="stop-color:#FFC444"/>
				<stop  offset="0.9964" style="stop-color:#F36F56"/>
			</linearGradient>
			<path style="fill:url(#SVGID_00000021821001401418163750000002640757928454298015_);" d="M2671.642,1181.537
				c0,0-2.355,94.54-39.712,140.95c-5.267,6.543-13.982,9.296-21.996,6.778c-20.201-6.346-58.233-25.042-66.909-76.993
				c0,0-20.078-27.743-17.204-39.878c2.874-12.134,24.4-7.727,31.32,7.581c6.92,15.308,16.321-11.832,13.257-16.941
				C2567.335,1197.925,2595.014,1145.277,2671.642,1181.537z"/>
			
				<linearGradient id="SVGID_00000009551585483769078890000018052710903266068649_" gradientUnits="userSpaceOnUse" x1="1180.5061" y1="2242.5059" x2="2114.5757" y2="2242.5059">
				<stop  offset="0.0036" style="stop-color:#E38DDD"/>
				<stop  offset="1" style="stop-color:#9571F6"/>
			</linearGradient>
			<path style="fill:url(#SVGID_00000009551585483769078890000018052710903266068649_);" d="M1939.124,1669.365
				c-171.308,65.948-193.192,122.295-197.174,143.703c-0.741,3.982-4.633,27.026-8.033,56.8
				c-6.571,57.528-3.19,69.075-10.021,88.892c-11.791,34.207-37.155,44.144-67.796,70.619
				c-88.542,76.501-61.434,153.086-141.67,208.882c-37.814,26.296-69.758,27.312-94.976,34.323
				c-78.826,21.915-173.576,125.096-238.948,487.922c16.153,18.381,32.305,36.761,48.458,55.142
				c83.79-187.958,187.014-300.284,264.141-367.479c156.734-136.55,280.161-151.595,430.98-305.92
				c101.728-104.093,158.874-213.18,190.49-285.735C2056.092,1794.13,1997.608,1731.748,1939.124,1669.365z"/>
			
				<linearGradient id="SVGID_00000073716087827848360880000002702272478504606638_" gradientUnits="userSpaceOnUse" x1="1299.0404" y1="2209.2488" x2="2114.5757" y2="2209.2488">
				<stop  offset="0.0036" style="stop-color:#E38DDD"/>
				<stop  offset="1" style="stop-color:#9571F6"/>
			</linearGradient>
			<path style="opacity:0.3;fill:url(#SVGID_00000073716087827848360880000002702272478504606638_);" d="M2002.731,1737.21
				c-119.815,17.122-161.506,56.941-177.232,90.896c-24.346,52.572,13.521,90.971,3.342,197.174
				c-1.999,20.855-11.519,120.179-66.839,190.49c-81.993,104.212-204.153,67.867-304.116,125.323
				c-67.211,38.631-136.608,126.712-158.846,340.195c66.744-110.069,137.437-183.784,194.065-233.12
				c156.734-136.55,280.161-151.595,430.98-305.92c101.728-104.093,158.874-213.18,190.49-285.735
				C2077.294,1816.745,2040.012,1776.978,2002.731,1737.21z"/>
			
				<linearGradient id="SVGID_00000082343493951900203010000001424217143132433558_" gradientUnits="userSpaceOnUse" x1="1807.6332" y1="2052.0657" x2="2622.6162" y2="2052.0657">
				<stop  offset="0.0036" style="stop-color:#E38DDD"/>
				<stop  offset="1" style="stop-color:#9571F6"/>
			</linearGradient>
			<path style="fill:url(#SVGID_00000082343493951900203010000001424217143132433558_);" d="M1906.575,1682.529
				c-52.546,27.019-103.177,88.4-98.661,154.469c4.156,60.791,53.946,110.1,101.412,132.571
				c83.103,39.34,136.623-14.216,307.164-15.061c99.069-0.491,189.012,17.047,190.505,37.354
				c1.42,19.327-78.989,17.806-126.993,81.877c-18.188,24.276-23.636,47.175-36.761,140.361
				c-7.058,50.11-15.327,113.398-23.394,187.148c10.475,11.686,20.949,23.372,31.424,35.057
				c95.862-107.973,239.527-279.567,343.351-452.898c15.38-25.676,35.515-60.789,25.148-97.183
				c-20.141-70.711-133.235-68.354-358.89-132.846C2043.01,1691.108,1984.999,1642.202,1906.575,1682.529z"/>
			
				<linearGradient id="SVGID_00000138561055816777352280000010884769254418701714_" gradientUnits="userSpaceOnUse" x1="1846.7832" y1="2242.6904" x2="2111.9092" y2="1841.6588">
				<stop  offset="0.494" style="stop-color:#EBEFF2"/>
				<stop  offset="1" style="stop-color:#FFFFFF"/>
			</linearGradient>
			<path style="fill:url(#SVGID_00000138561055816777352280000010884769254418701714_);" d="M2378.588,1886.59l68.51-37.781
				c-215.644-77.515-457.893-103.702-604.744-112.51c-17.403,22.304-30.058,48.54-33.667,76.346
				C2093.26,1807.786,2378.588,1886.59,2378.588,1886.59z"/>
			
				<linearGradient id="SVGID_00000123414752797306263540000008024122961409479096_" gradientUnits="userSpaceOnUse" x1="1845.5626" y1="2241.8823" x2="2110.6887" y2="1840.8506">
				<stop  offset="0.494" style="stop-color:#EBEFF2"/>
				<stop  offset="1" style="stop-color:#FFFFFF"/>
			</linearGradient>
			<path style="fill:url(#SVGID_00000123414752797306263540000008024122961409479096_);" d="M2328.867,1918.339l30.9-15.039
				c-223.292-62.582-454.925-54.97-549.121-47.809c8.375,37.253,33.364,69.157,62.46,91.698
				C2055.149,1889.404,2328.867,1918.339,2328.867,1918.339z"/>
			<g>
				
					<linearGradient id="SVGID_00000165957492298120931230000011949912569229828736_" gradientUnits="userSpaceOnUse" x1="1096.3643" y1="2865.1079" x2="1246.7378" y2="2865.1079">
					<stop  offset="0" style="stop-color:#311944"/>
					<stop  offset="1" style="stop-color:#A03976"/>
				</linearGradient>
				<path style="fill:url(#SVGID_00000165957492298120931230000011949912569229828736_);" d="M1172.192,2721.684
					c0,0-25.128,15.519-34.94,15.133c-9.813-0.386-44.889-6.782-40.512,26.721c4.378,33.503,32.207,175.269,46.839,209.642
					c14.632,34.373,24.76,44.278,61.321,38.362c15.293-2.474-9.789-40.153-5.886-60.862c3.903-20.708,47.723-149.99,47.723-149.99
					s-37.088-41.843-40.442-55.121C1202.941,2732.291,1195.374,2706.566,1172.192,2721.684z"/>
				<path style="fill:#B2B8C1;" d="M1157.366,2911.903V2802.83c0-17.775-4.114-35.309-12.02-51.229l-7.361-14.823
					c-0.24,0.008-0.509,0.047-0.733,0.039c-9.812-0.387-58.675-19.75-48.649,30.372c6.627,33.131,37.169,180.624,51.8,214.998
					c14.633,34.372,32.926,38.052,69.486,32.137c6.488-1.05,0.713-11.224-2.036-20.959l-19.087-15.502
					C1168.901,2961.727,1157.366,2937.496,1157.366,2911.903z"/>
			</g>
			<g>
				
					<linearGradient id="SVGID_00000106107021167274825420000010433930177843000233_" gradientUnits="userSpaceOnUse" x1="2123.1165" y1="2501.1997" x2="2264.1052" y2="2501.1997">
					<stop  offset="0" style="stop-color:#311944"/>
					<stop  offset="1" style="stop-color:#A03976"/>
				</linearGradient>
				<path style="fill:url(#SVGID_00000106107021167274825420000010433930177843000233_);" d="M2194.212,2366.727
					c0,0-23.559,14.551-32.759,14.188c-9.2-0.363-42.088-6.359-37.984,25.053c4.104,31.412,30.197,164.33,43.916,196.558
					c13.719,32.228,23.215,41.515,57.495,35.969c14.339-2.32-9.178-37.648-5.519-57.063c3.66-19.416,44.744-140.629,44.744-140.629
					s-34.774-39.232-37.918-51.681C2223.042,2376.672,2215.947,2352.553,2194.212,2366.727z"/>
				<path style="fill:#FFFFFF;" d="M2180.311,2545.074v-102.265c0-16.666-3.857-33.105-11.27-48.031l-6.902-13.898
					c-0.225,0.008-0.477,0.044-0.687,0.037c-9.199-0.363-55.013-18.517-45.613,28.477c6.214,31.063,34.85,169.351,48.567,201.58
					c13.719,32.227,30.871,35.677,65.15,30.131c6.083-0.983,0.668-10.523-1.909-19.651l-17.896-14.535
					C2191.126,2591.788,2180.311,2569.07,2180.311,2545.074z"/>
			</g>
		</g>
	</g>
</g>
</svg>
